<svg xmlns="http://www.w3.org/2000/svg" width="18" height="18">
    <path d="M2.812 18A2.816 2.816 0 0 1 0 15.188V4.219a2.816 2.816 0 0 1 2.812-2.813h.879V.7A.7.7 0 1 1 5.1.7v.7h3.162V.7a.7.7 0 1 1 1.406 0v.7h3.2V.7a.7.7 0 1 1 1.406 0v.7h.914A2.816 2.816 0 0 1 18 4.219v7.453a.7.7 0 1 1-1.406 0V4.219a1.408 1.408 0 0 0-1.406-1.406h-.914v.7a.7.7 0 0 1-1.406 0v-.7h-3.2v.7a.7.7 0 0 1-1.406 0v-.7H5.1v.7a.7.7 0 0 1-1.406 0v-.7h-.882a1.408 1.408 0 0 0-1.406 1.406v10.969a1.408 1.408 0 0 0 1.406 1.406h12.376a1.408 1.408 0 0 0 1.406-1.406.7.7 0 1 1 1.406 0A2.816 2.816 0 0 1 15.188 18zm8.4-3.8a1.408 1.408 0 0 1-1.403-1.4v-1.655a1.408 1.408 0 0 1 1.406-1.406h1.652a1.408 1.408 0 0 1 1.406 1.406V12.8a1.408 1.408 0 0 1-1.406 1.4zm-4.462-.7a.7.7 0 1 1 .7.7.7.7 0 0 1-.7-.7zm-3.059 0a.7.7 0 1 1 .7.7.7.7 0 0 1-.7-.7zm3.059-3.059a.7.7 0 1 1 .7.7.7.7 0 0 1-.7-.7zm-3.059 0a.7.7 0 1 1 .7.7.7.7 0 0 1-.7-.7zm9.176-3.059a.7.7 0 1 1 .7.7.7.7 0 0 1-.7-.699zm-3.059 0a.7.7 0 1 1 .7.7.7.7 0 0 1-.699-.699zm-3.059 0a.7.7 0 1 1 .7.7.7.7 0 0 1-.699-.699zm-3.059 0a.7.7 0 1 1 .7.7.7.7 0 0 1-.699-.699z" style="fill:#8194a5"/>
</svg>
