<svg xmlns="http://www.w3.org/2000/svg" width="32" height="32" viewBox="0 0 32 32">
    <defs>
        <clipPath id="clip-path">
            <path id="Rectangle_2881" fill="#8194a5" stroke="#808890" d="M0 0H32V32H0z"/>
        </clipPath>
        <style>
            .cls-3{fill:#8194a5}
        </style>
    </defs>
    <g id="Mask_Group_148" clip-path="url(#clip-path)">
        <g id="_64px_b-chat" transform="translate(0 1.807)">
            <path id="Path_2209" d="M26.362 5.484h-3.1v9.806a3.1 3.1 0 0 1-3.1 3.1h-9.217L6.815 22h9.575l7.091 5.065a.51.51 0 0 0 .3.1.526.526 0 0 0 .236-.057.516.516 0 0 0 .28-.459V22h2.065a2.065 2.065 0 0 0 2.065-2.065V7.548a2.065 2.065 0 0 0-2.065-2.064z" class="cls-3" transform="translate(3.573 1.226)"/>
            <path id="Path_2210" d="M24.065 1.29H2.387A2.065 2.065 0 0 0 .323 3.355v14.451a2.065 2.065 0 0 0 2.065 2.065h3.1v6.71a.516.516 0 0 0 .3.47A.507.507 0 0 0 6 27.1a.516.516 0 0 0 .34-.127l8.113-7.1h9.612a2.065 2.065 0 0 0 2.065-2.065V3.355a2.065 2.065 0 0 0-2.065-2.065z" class="cls-3" transform="translate(-.323 -1.29)"/>
        </g>
    </g>
</svg>
