<svg data-name="Component 30 – 23" xmlns="http://www.w3.org/2000/svg" width="32" height="32">
    <defs>
        <clipPath id="a">
            <path data-name="Rectangle 2854" transform="translate(2122 1756)" style="stroke:#707070;fill:#8194a5" d="M0 0h32v32H0z"/>
        </clipPath>
    </defs>
    <g data-name="Mask Group 117" transform="translate(-2122 -1756)" style="clip-path:url(#a)">
        <g data-name="160-copy">
            <path data-name="Path 12594" d="M12.7 24H3.75A3.754 3.754 0 0 1 0 20.25V7.547A3.754 3.754 0 0 1 3.75 3.8h8.95a3.754 3.754 0 0 1 3.75 3.75v12.7A3.754 3.754 0 0 1 12.7 24zM3.75 5.672a1.877 1.877 0 0 0-1.875 1.875v12.7a1.877 1.877 0 0 0 1.875 1.878h8.95a1.877 1.877 0 0 0 1.875-1.875V7.547A1.877 1.877 0 0 0 12.7 5.672zM20.2 17.906V3.75A3.754 3.754 0 0 0 16.453 0H6.047a.938.938 0 0 0 0 1.875h10.406a1.877 1.877 0 0 1 1.875 1.875v14.156a.938.938 0 0 0 1.875 0zm0 0" style="fill:#8194a5" transform="translate(2128 1760)"/>
        </g>
    </g>
</svg>
