<svg xmlns="http://www.w3.org/2000/svg" width="32" height="32" viewBox="0 0 32 32">
    <g>
        <g>
            <path fill="#006a9b" d="M16 8a16 16 0 1 0 16 16A16 16 0 0 0 16 8zm0 6.194a5.677 5.677 0 1 1-5.677 5.677A5.677 5.677 0 0 1 16 14.194zm0 22.194a12.362 12.362 0 0 1-9.452-4.4 7.193 7.193 0 0 1 6.352-3.859 1.6 1.6 0 0 1 .458.071 8.043 8.043 0 0 0 5.277 0 1.6 1.6 0 0 1 .458-.071 7.193 7.193 0 0 1 6.355 3.858 12.362 12.362 0 0 1-9.448 4.4z" transform="translate(0 -8) translate(0 8) translate(0 -8)"/>
            <path fill="#fff" d="M110.952 115.355a5.677 5.677 0 1 0-5.677-5.677 5.677 5.677 0 0 0 5.677 5.677zm3.1 2.581a1.6 1.6 0 0 0-.458.071 8.043 8.043 0 0 1-5.277 0 1.6 1.6 0 0 0-.458-.071 7.193 7.193 0 0 0-6.355 3.858 12.352 12.352 0 0 0 18.9 0 7.193 7.193 0 0 0-6.356-3.859z" transform="translate(0 -8) translate(0 8) translate(-94.952 -97.806)"/>
        </g>
    </g>
</svg>
