<svg xmlns="http://www.w3.org/2000/svg" width="32" height="32" viewBox="0 0 32 32">
    <defs>
        <clipPath id="8v3zxqph2a">
            <path fill="#8194a5" stroke="#707070" d="M0 0H32V32H0z" transform="translate(111 715)"/>
        </clipPath>
    </defs>
    <g clip-path="url(#8v3zxqph2a)" transform="translate(-111 -715)">
        <g>
            <path fill="#8194a5" d="M12.863 11.672V3.9a1.408 1.408 0 0 0-1.406-1.4H7.031v5.023a2.109 2.109 0 0 1-4.219 0V4.5a.7.7 0 0 1 1.406 0v3.023a.7.7 0 0 0 1.406 0V2.109a.7.7 0 0 0-1.387-.159.7.7 0 0 1-.737.543h-.687A1.408 1.408 0 0 0 1.406 3.9v11.288a1.408 1.408 0 0 0 1.406 1.406h8.645a1.408 1.408 0 0 0 1.406-1.406.7.7 0 0 1 1.406 0A2.816 2.816 0 0 1 11.457 18H2.813A2.816 2.816 0 0 1 0 15.188V3.9a2.816 2.816 0 0 1 2.813-2.81h.261a2.11 2.11 0 0 1 3.694 0h4.689a2.816 2.816 0 0 1 2.812 2.81v7.77a.7.7 0 0 1-1.406 0zm-9.347 2.109a.7.7 0 0 0 0 1.406h5.1a.7.7 0 0 0 0-1.406zm7.91-2.074a.7.7 0 0 0-.7-.7h-7.21a.7.7 0 0 0 0 1.406h7.207a.7.7 0 0 0 .703-.706zm-.7-3.445H9.105a.7.7 0 0 0 0 1.406h1.617a.7.7 0 0 0 0-1.406zm0-2.777H9.105a.7.7 0 0 0 0 1.406h1.617a.7.7 0 0 0 0-1.406zm0 0" transform="translate(120 722)"/>
        </g>
    </g>
</svg>
