<svg xmlns="http://www.w3.org/2000/svg" xmlns:xlink="http://www.w3.org/1999/xlink" width="16" height="16" viewBox="0 0 16 16">
  <defs>
    <clipPath id="clip-path">
      <rect id="Rectangle_3" data-name="Rectangle 3" width="16" height="16" fill="#8c8d90" stroke="#707070" stroke-width="1"/>
    </clipPath>
  </defs>
  <g id="Group_21453" data-name="Group 21453" transform="translate(-491 -276)">
    <g id="Icon_16px" data-name="Icon 16px" transform="translate(491 276)">
      <g id="Mask_Group_65" data-name="Mask Group 65" clip-path="url(#clip-path)">
        <g id="_48px_attach" data-name="48px_attach" transform="translate(0.022 0)">
          <path id="Path_5265" data-name="Path 5265" d="M6.185,16.676a5.4,5.4,0,0,1-4.1-1.869,5.515,5.515,0,0,1,.37-7.479L7.89,1.9a4.049,4.049,0,0,1,5.416-.34,3.976,3.976,0,0,1,.283,5.875L8.55,12.471a2.657,2.657,0,0,1-1.623.8A2.528,2.528,0,0,1,4.179,10.52a2.656,2.656,0,0,1,.8-1.623L9.5,4.369a.361.361,0,0,1,.511,0l.511.511a.361.361,0,0,1,0,.511l-4.6,4.6a1.083,1.083,0,0,0,0,1.532,1.109,1.109,0,0,0,1.532,0l5.045-5.045a2.585,2.585,0,0,0,.282-3.385,2.531,2.531,0,0,0-3.8-.251L3.377,8.454a3.972,3.972,0,0,0,.1,5.717,4.055,4.055,0,0,0,5.6-.19l6.548-6.548a.361.361,0,0,1,.511,0l.511.511a.361.361,0,0,1,0,.511l-6.638,6.638a5.4,5.4,0,0,1-3.829,1.584Z" transform="translate(-0.802 -0.676)" fill="#8c8d90"/>
        </g>
      </g>
    </g>
  </g>
</svg>
