<svg xmlns="http://www.w3.org/2000/svg" width="32" height="32" viewBox="0 0 32 32">
    <defs>
        <clipPath id="0gxtrpd60a">
            <path fill="#8194a5" stroke="#707070" d="M0 0H32V32H0z" transform="translate(3671 6)"/>
        </clipPath>
    </defs>
    <g clip-path="url(#0gxtrpd60a)" transform="translate(-3671 -6)">
        <g>
            <path fill="#8194a5" d="M12.234 3.867a1.055 1.055 0 1 1-1.054 1.055 1.055 1.055 0 0 1 1.054-1.055zm4.359 4.992V2.813a1.408 1.408 0 0 0-1.406-1.406H2.813a1.408 1.408 0 0 0-1.407 1.406V9.05L4 6.454a2.112 2.112 0 0 1 2.983 0l3.744 3.746.789-.789a2.112 2.112 0 0 1 2.983 0l3.295 3.289a.7.7 0 0 1 .206.5v1.989A2.816 2.816 0 0 1 15.188 18H2.813A2.816 2.816 0 0 1 0 15.188V2.813A2.816 2.816 0 0 1 2.813 0h12.375A2.816 2.816 0 0 1 18 2.813v6.046a.7.7 0 0 1-1.406 0zm-15.187 2.18v4.149a1.408 1.408 0 0 0 1.406 1.406h12.376a1.408 1.408 0 0 0 1.406-1.406v-1.7L13.5 10.4a.7.7 0 0 0-.994 0l-3.48 3.48a.7.7 0 0 1-.994-.994l1.7-1.7-3.741-3.738a.706.706 0 0 0-.994 0z" transform="translate(3678 13)"/>
        </g>
    </g>
</svg>
