<svg xmlns="http://www.w3.org/2000/svg" width="17.681" height="17.758">
    <defs>
        <style>
            .cls-1{fill:#8194a5}
        </style>
    </defs>
    <g id="_031-bookmark" data-name="031-bookmark" transform="translate(-4.134 -4.134)">
        <path id="Path_19309" data-name="Path 19309" class="cls-1" d="M19.373 21.344a.552.552 0 0 1-.311-.1l-2.562-1.62c-2.368 1.809-2.609 1.736-2.855 1.745a.552.552 0 0 1-.543-.381c-.076-.234.041-.248.963-3.222l-2.16-1.845a.552.552 0 0 1 .328-.972l2.751-.155 1-2.718a.552.552 0 0 1 1.037 0l1 2.718 2.751.155a.552.552 0 0 1 .328.972l-2.16 1.845.971 2.89a.552.552 0 0 1-.536.688zM16.5 18.4a.55.55 0 0 1 .311.1l1.589 1.124-.623-1.918a.553.553 0 0 1 .177-.556l1.374-1.173-1.74-.1a.554.554 0 0 1-.488-.362l-.6-1.644-.6 1.644a.552.552 0 0 1-.488.362l-1.74.1 1.374 1.173a.553.553 0 0 1 .177.556l-.7 1.918L16.19 18.5a.554.554 0 0 1 .312-.1z" transform="translate(.524 .524)"/>
        <path id="Path_19310" data-name="Path 19310" class="cls-1" d="M12.687 19.461H6.16a2.028 2.028 0 0 1-2.026-2.026V8.227A2.028 2.028 0 0 1 6.16 6.2h1.385v1.1H6.16a.922.922 0 0 0-.921.921v9.208a.922.922 0 0 0 .921.921h6.527z" transform="translate(0 .143)"/>
        <path id="Path_19311" data-name="Path 19311" class="cls-1" d="M16.068 10.643h-1.1V8.227a.922.922 0 0 0-.921-.921h-1.383V6.2h1.378a2.028 2.028 0 0 1 2.026 2.026z" transform="translate(.59 .143)"/>
        <path id="Path_19312" data-name="Path 19312" class="cls-1" d="M12.231 8.922H8.179A1.291 1.291 0 0 1 6.89 7.633V6.16a.552.552 0 0 1 .552-.552h.813a2.026 2.026 0 0 1 3.9 0h.813a.552.552 0 0 1 .552.552v1.473a1.291 1.291 0 0 1-1.289 1.289zM8 6.712v.921a.184.184 0 0 0 .184.184h4.052a.184.184 0 0 0 .184-.184v-.921h-.737a.552.552 0 0 1-.552-.552.921.921 0 0 0-1.842 0 .552.552 0 0 1-.552.552z" transform="translate(.191)"/>
        <path id="Path_19313" data-name="Path 19313" class="cls-1" d="M6.718 9.646h7v1.1h-7z" transform="translate(.179 .381)"/>
        <path id="Path_19314" data-name="Path 19314" class="cls-1" d="M6.718 11.713h7v1.1h-7z" transform="translate(.179 .524)"/>
        <path id="Path_19315" data-name="Path 19315" class="cls-1" d="M6.718 13.78h3.941v1.1H6.718z" transform="translate(.179 .667)"/>
    </g>
</svg>
