<svg xmlns="http://www.w3.org/2000/svg" id="Component_387_1" width="36" height="36" viewBox="0 0 36 36">
    <defs>
        <clipPath id="clip-path">
            <path id="Rectangle_17493" fill="#fff" stroke="#707070" d="M0 0H36V36H0z" transform="translate(9195 -4327)"/>
        </clipPath>
        <style>
            .cls-4{fill:none;stroke:#e4a237;stroke-linecap:round;stroke-linejoin:round;stroke-width:2px}
        </style>
    </defs>
    <g id="Mask_Group_279" clip-path="url(#clip-path)" transform="translate(-9195 4327)">
        <g id="_107-file" transform="translate(9198.73 -4327)">
            <path id="Path_16678" fill="#e4a237" d="M27.133 24.75a1.406 1.406 0 0 0 1.406-1.406V5.625A5.631 5.631 0 0 0 22.914 0h-12.77a5.536 5.536 0 0 0-3.907 1.628L1.594 6.313A5.466 5.466 0 0 0 0 10.185v20.19A5.631 5.631 0 0 0 5.625 36h17.289a5.631 5.631 0 0 0 5.625-5.625 1.406 1.406 0 0 0-2.812 0 2.816 2.816 0 0 1-2.812 2.813H5.625a2.816 2.816 0 0 1-2.812-2.812V11.883h4.148a4.927 4.927 0 0 0 4.922-4.922 1.406 1.406 0 0 0-2.812 0 2.112 2.112 0 0 1-2.11 2.109H3.054a2.693 2.693 0 0 1 .537-.777l4.644-4.685a2.705 2.705 0 0 1 1.909-.8h12.77a2.816 2.816 0 0 1 2.813 2.813v17.723a1.406 1.406 0 0 0 1.406 1.406zm0 0"/>
        </g>
        <g id="download" transform="translate(9201 -4321)">
            <path id="Path_16679" d="M12 3v13" class="cls-4"/>
            <path id="Path_16680" d="M7 12l5 5 5-5" class="cls-4"/>
            <path id="Path_16681" d="M20 21H4" class="cls-4"/>
        </g>
    </g>
</svg>
