<svg xmlns="http://www.w3.org/2000/svg" width="16" height="16" viewBox="0 0 16 16">
    <defs>
        <clipPath id="yystaak8ra">
            <path fill="#8c8d90" stroke="#707070" d="M0 0H16V16H0z"/>
        </clipPath>
    </defs>
    <g clip-path="url(#yystaak8ra)">
        <g>
            <path fill="#8c8d90" d="M6.185 16.676a5.4 5.4 0 0 1-4.1-1.869 5.515 5.515 0 0 1 .37-7.479L7.89 1.9a4.049 4.049 0 0 1 5.416-.34 3.976 3.976 0 0 1 .283 5.875L8.55 12.471a2.657 2.657 0 0 1-1.623.8 2.528 2.528 0 0 1-2.748-2.751 2.656 2.656 0 0 1 .8-1.623L9.5 4.369a.361.361 0 0 1 .511 0l.511.511a.361.361 0 0 1 0 .511l-4.6 4.6a1.083 1.083 0 0 0 0 1.532 1.109 1.109 0 0 0 1.532 0l5.045-5.045a2.585 2.585 0 0 0 .282-3.385 2.531 2.531 0 0 0-3.8-.251L3.377 8.454a3.972 3.972 0 0 0 .1 5.717 4.055 4.055 0 0 0 5.6-.19l6.548-6.548a.361.361 0 0 1 .511 0l.511.511a.361.361 0 0 1 0 .511l-6.638 6.638a5.4 5.4 0 0 1-3.829 1.584z" transform="translate(0.022 0) translate(-0.802 -0.676)"/>
        </g>
    </g>
</svg>
