<svg xmlns="http://www.w3.org/2000/svg" width="847" height="348.131" viewBox="0 0 847 348.131">
    <defs>
        <style>
            .cls-2{fill:#599dad}.cls-3{fill:#6bb7bf}.cls-5{fill:#efcbab}.cls-8{fill:#163560}.cls-9{fill:#e49963}.cls-10{fill:#ed7d2b}.cls-12{fill:#f99746}.cls-14{fill:#196a93}.cls-15{fill:#00486c}.cls-16{fill:#232426}.cls-17{fill:#003e5f}.cls-18{fill:#ffb27d}.cls-19{fill:#f9a267}.cls-20{fill:#f9ddbf}.cls-21{fill:#c6916d}.cls-22{fill:#eac3a0}.cls-24{fill:#d39e7a}.cls-25{fill:#f4a269}.cls-26{fill:#e18c12}.cls-27{fill:#d56e09}.cls-28{fill:#ca5705}
        </style>
    </defs>
    <g id="Group_20594" transform="translate(-139.497 -265.116)">
        <g id="Group_20593" transform="translate(139.497 265.116)">
            <path id="Path_13430" fill="#fcecdb" d="M282.162 721.119s-46.381-114.681 21.472-183.158c87.518-88.322 200.615-14.5 243.052-16.648s44.827-86.9 171.624-97.02c98.04-7.826 259.049-8.443 224.7 130.014-26.116 105.267 119.185 50.742 90.894 167.034z" transform="translate(-228.092 -374.053)"/>
            <g id="Group_20583" transform="translate(93.294 187.435)">
                <g id="Group_20578" transform="translate(84.321 62.976)">
                    <path id="Path_13431" d="M774.508 1116.974s-11.035-12.874-.681-21.052c0 0 7.564-4.579 13.731-4.207 0 0-8.739 14.654-5.912 16.112s8.561-17.031 8.561-17.031 17.212-1.669 22.749.993c0 0-14.714 12.041-11.615 12.758s18.992-11.1 18.992-11.1 16.02 2.726 15.166 12.5-6.374 12.79-8.8 12.531-16.618-5.677-16.927-3.69 8.233 8.484 14.216 8.788c0 0-11.294 12.456-18.8 8.861s-8.148-9.293-12.826-11.43-8.673-2.131-6.742.048 10.4 4.3 13.076 9.031 5.077 7.926-2.689 6.757-20.389-6.851-20.944-13.358z" class="cls-2" transform="translate(-755.856 -1090.279)"/>
                    <g id="Group_20577" transform="translate(0 15.852)">
                        <path id="Path_13432" d="M817.137 1142.592s-43.511-1.677-53.12 10.767a31.468 31.468 0 0 1-8.664 12.16l-1.019 2.778s7.54-7.95 10.237-8.43c0 0-4.219-15.417 52.566-17.275z" class="cls-2" transform="translate(-745.365 -1142.517)"/>
                        <path id="Path_13433" d="M734.767 1215.8s-9.339 6.907-9.988 19.248l1.7.152s2.983-12.761 8.374-17.751-.086-1.649-.086-1.649z" class="cls-2" transform="translate(-724.779 -1192.799)"/>
                    </g>
                </g>
                <g id="Group_20580" transform="translate(0 28.022)">
                    <path id="Path_13434" d="M511.313 1020.555s17.554-9.831 9.362-23.172c0 0-6.554-8.192-13.575-10.3 0 0 3.745 19.895 0 20.363s-2.575-22.469-2.575-22.469-18.49-8.894-25.746-8.192c0 0 11.469 19.427 7.724 18.959s-16.619-20.129-16.619-20.129-18.959-3.511-22 7.724 1.872 16.852 4.681 17.554 20.831.468 20.363 2.809-12.639 6.086-19.427 3.979c0 0 7.49 18.49 17.32 17.554s12.873-7.021 18.959-7.49 10.533 1.17 7.49 2.809-13.341.537-18.256 4.715-8.894 6.753.234 8.626 25.513.7 28.789-6.319z" class="cls-3" transform="translate(-446.922 -975.096)"/>
                    <g id="Group_20579" transform="translate(9.62 11.754)">
                        <path id="Path_13435" d="M478.623 1013.829s49.153 15.916 54.77 33.7a37.334 37.334 0 0 0 4.681 17.086v3.511s-5.149-11.937-7.958-13.576c0 .005 11.001-15.443-51.493-40.721z" class="cls-3" transform="translate(-478.623 -1013.829)"/>
                        <path id="Path_13436" d="M669.137 1176.181s7.58 11.511 3.259 25.523l-1.95-.524s1.893-15.433-2.073-23.195.764-1.804.764-1.804z" class="cls-3" transform="translate(-609.686 -1125.391)"/>
                    </g>
                </g>
                <g id="Group_20582" transform="translate(77.105)">
                    <path id="Path_13437" fill="#86d1cd" d="M716.214 942.681s-23.14-12.958-12.341-30.545c0 0 8.639-10.8 17.895-13.575 0 0-4.937 26.225 0 26.842s3.393-29.619 3.393-29.619 24.374-11.725 33.939-10.8c0 0-15.118 25.608-10.182 24.991s21.906-26.534 21.906-26.534 24.991-4.628 29 10.182-2.468 22.214-6.171 23.14-27.459.617-26.842 3.7 16.661 8.022 25.608 5.245c0 0-9.873 24.374-22.832 23.14s-16.969-9.256-24.991-9.873-13.884 1.543-9.873 3.7 17.586.708 24.065 6.216 11.724 8.9-.309 11.37-33.63.926-37.95-8.33z" transform="translate(-701.002 -882.758)"/>
                    <g id="Group_20581" transform="translate(2.991 15.494)">
                        <path id="Path_13438" d="M809.163 933.815s-64.792 20.98-72.2 44.429c0 0 .308 10.49-6.171 22.523v4.628s6.788-15.735 10.49-17.894c.004-.001-14.497-20.365 67.881-53.686z" class="cls-3" transform="translate(-724.745 -933.815)"/>
                        <path id="Path_13439" d="M716.908 1147.824s-9.992 15.173-4.3 33.644l2.57-.69s-2.5-20.344 2.732-30.575-1.002-2.379-1.002-2.379z" class="cls-3" transform="translate(-710.857 -1080.873)"/>
                    </g>
                </g>
                <path id="Path_13440" d="M644.523 1293.247a45.328 45.328 0 0 0 45.328-45.327h-90.656a45.328 45.328 0 0 0 45.328 45.327z" class="cls-5" transform="translate(-552.985 -1137.105)"/>
                <path id="Path_13441" fill="#ffebdc" d="M668.357 1292.9a45.359 45.359 0 0 1-50.957-44.981h11.261a45.335 45.335 0 0 0 39.696 44.981z" transform="translate(-565.665 -1137.103)"/>
                <path id="Path_13442" d="M689.04 1392.049h-91.907a5.592 5.592 0 0 1 5.592-5.592h80.723a5.592 5.592 0 0 1 5.592 5.592z" class="cls-5" transform="translate(-551.549 -1233.6)"/>
                <path id="Rectangle_17406" fill="#efcdaf" d="M0 0H93.176V1.39H0z" transform="translate(44.72 110.815)"/>
            </g>
            <g id="Group_20585" transform="translate(547.082 22.108)">
                <path id="Path_13443" d="M2226.114 1343.137s.939 15.151 3.871 15.369c.39.029 14.867.029 14.867.029l18.481-.107s-.121-4.453-5.523-5.394-14.444-4.738-17.716-11.878c-3.443-7.513-13.98 1.981-13.98 1.981z" class="cls-8" transform="translate(-2139.973 -1034.704)"/>
                <path id="Path_13444" d="M2186.112 763.87s8.725 4.961 11.167 4.961 12.03-1.854 14.7-.488 7.51 6.86 8.418 8.655c1.632 3.227-6.57 1.8-10.448-.947a2.443 2.443 0 0 0-1.937-.4c-2.008.438-6.18 1.2-8.194.451-2.708-1-16.976-2.116-16.976-2.116z" class="cls-9" transform="translate(-2109.834 -634.622)"/>
                <path id="Path_13445" d="M1974.874 520.615s9.044 64.283 24.02 70.04c7.39 2.841 40.049 9.281 49.71 9.928 0 0 2.367-1.92 1.79-9.735 0 0-34.216-12.562-39.077-19.393-7.235-10.167 4.491-41.536-4.587-51.085s-24.368-13.653-31.856.245z" class="cls-10" transform="translate(-1964.976 -458.937)"/>
                <path id="Path_13446" d="M1958.413 900.856a112.693 112.693 0 0 0 8.835 12.641c9.721 12.271 20.3 22.39 22.146 31.954a43.269 43.269 0 0 0 1.709 6.122c.77 2.191 1.721 4.494 2.82 6.876 4.125 8.96 10.293 19 16.453 28.127 10.647 15.777 20.659 28.941 20.659 28.941l18.361-.783c-.735-1.84-8.743-23.624-19.456-50.245l-13.439-33.388q-.892-2.221-1.778-4.416c-1.364-3.392-2.707-6.732-4.019-9.984-10.058-25-18.071-44.9-18.071-44.9s-40.2-15.229-44.379-5.361c-3.442 8.137-.638 16.107 10.159 34.416z" class="cls-2" transform="translate(-1945.468 -703.747)"/>
                <path id="Path_13447" d="M2059.351 1211.692s-12.771 8.206-11.532 10.872c.165.354 7.223 12.995 7.223 12.995l9.1 16.084s3.829-2.276 2.018-7.452-2.9-14.921 1.734-21.259c4.883-6.668-8.543-11.24-8.543-11.24z" class="cls-8" transform="translate(-2015.727 -946.544)"/>
                <path id="Path_13448" d="M1995.165 987.706s-7.981-7.04-9.389-12.2c0 0 32.888-39.4 40.022-48.237.327-.4.244-.85-.188-1.338-5.386-6.073-65.226-18.418-73.046-30.586a37.7 37.7 0 0 1-5.054-11.65 27.544 27.544 0 0 1-.371-12.553l59.762-1.729s49.758 30.982 55.394 52.107-67.13 66.186-67.13 66.186z" class="cls-3" transform="translate(-1945.292 -708.133)"/>
                <path id="Path_13449" fill="#5aa9ad" d="M2027.67 932.177c-5.385-6.073-65.226-18.418-73.046-30.586a37.7 37.7 0 0 1-5.054-11.65v-7.563l25.4-3.995s7.2 22.164 28.536 30.475c19.981 7.785 23.765 21.599 24.164 23.319z" transform="translate(-1947.351 -714.384)"/>
                <path id="Path_13450" d="M2017.64 463.84c-12.09 3.125-32.132-8.076-32.132-8.076s7.782-5.231 10.666-16.72c.147-.579.277-1.172.4-1.781 1.267-.269 3.654-.776 6.209-1.316l9.234 8.273a79.483 79.483 0 0 1-1.365 9.339c-.2 1.031-.429 2.136-.7 3.314a28.481 28.481 0 0 1 7.688 6.967z" class="cls-9" transform="translate(-1972.383 -406.213)"/>
                <path id="Path_13451" d="M1942.583 548.455c1.731 23.291-.546 58.714 1.418 64.848 1.7 5.293 21.013 2.147 28.724.379 2.854-.654 6.31-1.588 9.881-2.692 9.958-3.084 20.81-7.487 21.974-10.756a2.72 2.72 0 0 0 .107-.376 2.985 2.985 0 0 0-.021-1.37c-.388-1.666-1.883-3.469-2.06-7.594-.2-4.606-.167-10.031-.34-15.864-.009-.657-.017-1.373-.089-2.027v-.239c0-.126-.006-.248-.009-.373-.167-6.5-.508-13.344-.9-20.126-.25-4.26-.54-8.478-.875-12.52-.869-10.434-2.039-19.712-3.588-25.578-2.531-9.562-8.114-15.8-13.2-20.368l-3.675-3.153a21.25 21.25 0 0 1-13.335-1.776c-4.746-2.254-6.386-3.869-7.212-3.26-10.961 8.457-18.845 34.372-16.8 62.845z" class="cls-12" transform="translate(-1942.259 -440.715)"/>
                <path id="Path_13452" d="M2010.169 692.741c9.959-3.084 20.81-7.487 21.974-10.756a2.689 2.689 0 0 0 .108-.376c-.006-.457-.012-.914-.021-1.37-.388-1.666-1.884-3.469-2.06-7.594-.2-4.606-.167-10.031-.341-15.864-.009-.657-.017-1.373-.089-2.026v-.239c0-.125-.006-.247-.009-.373l-40.26-51.293s-27.071 56.35 20.698 89.891z" class="cls-10" transform="translate(-1969.822 -522.466)"/>
                <path id="Path_13453" fill="#ebb451" d="M2036.494 444.22a79.526 79.526 0 0 1-1.366 9.339c-9.018-2.914-13.107-11.06-14.473-14.515.147-.579.277-1.172.4-1.781 1.266-.269 3.654-.776 6.209-1.316z" transform="translate(-1996.864 -406.213)"/>
                <path id="Path_13454" d="M2036.427 400.1s-19.665-3.282-17.433-15.5 1.2-20.865 13.847-19.286 14.231 6.684 14.478 10.943-5.719 24.384-10.892 23.843z" class="cls-9" transform="translate(-1995.585 -356.889)"/>
                <g id="Group_20584" transform="translate(69.891 102.317)">
                    <path id="Rectangle_17407" d="M0 0H1.823V47.746H0z" class="cls-14" transform="rotate(-161.99 28.687 19.02)"/>
                    <path id="Rectangle_17408" d="M0 0H50.103V2.997H0z" class="cls-14" transform="rotate(-178.777 25.291 22.72)"/>
                </g>
                <path id="Path_13455" d="M2175.873 810.067s16.095 4.244 22.131 3.8 11.056-3.316 11.815-4.815 2.355-4.157-1.754-3.666-9.719 1.364-9.893.574 3.35-.714 3.35-.714 1.065-1.549-.276-1.6-5.253-1.118-6.706-.391-2.794 3.409-3.856 3.3-13.469-5.589-13.469-5.589z" class="cls-9" transform="translate(-2104.979 -660.454)"/>
                <path id="Path_13456" d="M1988.025 532.724s1.9 64.888 16.153 72.262c7.031 3.639 38.781 13.64 48.312 15.348 0 0 2.564-1.647 2.853-9.478 0 0-32.623-16.257-36.7-23.583-6.069-10.9 9.043-40.788 1.073-51.28s-22.716-16.257-31.691-3.269z" class="cls-12" transform="translate(-1974.136 -468.408)"/>
                <path id="Path_13457" d="M2011.141 370.8s-.225-4.191 2.361-6.592c0 0-.9-4.2.762-4.895s2.009 2.84 2.77 2.286a16.974 16.974 0 0 0 5.61-7.065c1.455-3.879 14.766.819 16.318 1.518s6.538-1.864 7.508-3.942a29.2 29.2 0 0 1-4.017-3.878c-1.246-1.662-9.974-12.883-22.164-9.7s-13.853 9-13.16 13.991-.981 16.603 4.012 18.277z" class="cls-15" transform="translate(-1987.35 -337.968)"/>
            </g>
            <g id="Group_20586" transform="translate(195.394)">
                <path id="Path_13458" d="M798.517 525.918l10.492-1a1.927 1.927 0 0 1 1.962 1.179l7.921 19.067a1.926 1.926 0 0 1-1.6 2.656l-10.917 1.043a1.927 1.927 0 0 1-1.976-1.214l-7.5-19.108a1.927 1.927 0 0 1 1.618-2.623z" class="cls-16" transform="translate(-792.704 -446.069)"/>
                <path id="Path_13459" d="M1069.392 934.721l-5.568 2.955s-30.1-31.92-37.34-62.55a47.629 47.629 0 0 1-1.26-15.98s-.437-1.387-1.2-3.84l-.1-.327c-.335-1.076-.737-2.342-1.184-3.776-1.453-4.629-3.45-10.963-5.725-18.173-5.24-16.595-17.223-54.021-22.344-69.588l36.805-13.316s4.181 9.533 10.188 35.444c.925 3.382 1.852 7.122 2.718 11.2.982 4.615 1.9 9.661 2.66 15.113a232.063 232.063 0 0 1 2.207 31.025c.02 4.636-.093 9.444-.368 14.4a63.552 63.552 0 0 0 1.353 14c4.631 25.206 19.158 63.413 19.158 63.413z" class="cls-15" transform="translate(-930.543 -602.939)"/>
                <path id="Path_13460" d="M1238.291 1369.452h-29.756s-1.112-4.746.842-7.976c1.729-2.857 1.066-4.485-.214-6.849a11.558 11.558 0 0 0 5.012.944 10.486 10.486 0 0 0 4.425-1.557c1.281 1.46 6.764 7.675 8.478 8.906 1.943 1.398 10.614.901 11.213 6.532z" class="cls-16" transform="translate(-1079.289 -1023.568)"/>
                <path id="Path_13461" d="M1047.036 811.878l-23.117 43.1c-.335-1.076-.737-2.342-1.184-3.776-1.453-4.629-3.45-10.963-5.725-18.173-5.24-16.595-17.223-54.021-22.344-69.588l36.805-13.316s4.181 9.533 10.188 35.444c.925 3.382 1.852 7.122 2.718 11.2.981 4.611 1.897 9.657 2.659 15.109z" class="cls-17" transform="translate(-930.543 -602.939)"/>
                <path id="Path_13462" d="M805.56 602.032c-.185.159-9-8.857-13.714-13.852l4.717-2.872 25.758 16.17z" class="cls-18" transform="translate(-789.272 -488.14)"/>
                <path id="Path_13463" d="M992.415 1371.122a19.249 19.249 0 0 0 1.247 9.315h12.329s.092-3.681-3.048-8.3-10.528-1.015-10.528-1.015z" class="cls-16" transform="translate(-928.891 -1034.553)"/>
                <path id="Path_13464" d="M1018.465 272.781c.167-.788 2.268-9.228 15.364-7.409 0 0-6.535-.351-8.13 2.271 0 0 4.964-2.719 8.319-.982s4.357 8.318 4.023 10.368-3.455 8.3-5.805 8.469a6.977 6.977 0 0 1-2.73-.471 31.035 31.035 0 0 1 1.205 3.426c3.339 11.567-3.831 21.056-8.029 19.14-2.692-1.229-4.327 3.445-4.327 3.445l-23.541-26.953s13.686-19.076 23.651-11.304z" class="cls-17" transform="translate(-930.645 -265.116)"/>
                <path id="Path_13465" d="M993.358 444.364a33.632 33.632 0 0 0 11.756 5c18.12 4.187 25.064-11.128 27.673-21.641a15.577 15.577 0 0 0-6.139-1.886c-1.31-.154-2.687-.257-3.828-.313-2.035-1.559-5.066-7.937-5.737-17.841l-.852.229-14.281 3.909s.654 4.54.975 8.831c.248 3.357.287 6.566-.349 7.351-1.114.242-1.783.4-1.783.4a.036.036 0 0 1-.007.013 91.925 91.925 0 0 0-7.428 15.948z" class="cls-18" transform="translate(-929.632 -364.421)"/>
                <path id="Path_13466" d="M1021.666 412.358s.656 4.536.974 8.831c8.091-.81 11.846-8.513 13.308-12.739z" class="cls-19" transform="translate(-949.349 -364.953)"/>
                <path id="Path_13467" d="M995.347 359.688s19.2-1.059 18.36-13.009 1.067-20.134-11.231-19.962-14.355 4.9-15.043 8.956 2.896 23.983 7.914 24.015z" class="cls-18" transform="translate(-925.445 -308.021)"/>
                <path id="Path_13468" d="M984.114 323.337c2.707-3.807 5-3.179 6.337-2.189a13.442 13.442 0 0 1 17.438 1.522 22.882 22.882 0 0 0 8.433 12.949s-3.341 2.41-11.55.916a13.733 13.733 0 0 1-6.851-4.037 44.853 44.853 0 0 0 8.376 8.854c-9.946-3.759-14.773-16.872-15.26-18.261-1.1 1.136-3.24 3.586-3.783 5.875-.738 3.111-.719 9.406-2.559 9.323-.001.001-4.641-9.243-.581-14.952z" class="cls-17" transform="translate(-922.033 -302.37)"/>
                <path id="Path_13469" d="M950.454 467.025s31.285-7.6 44.889 3.624l-6.8 94.813-61.186-14.781s1.722-6 13.454-21.953 6.631-39.355 9.643-61.703z" class="cls-18" transform="translate(-883.661 -404.002)"/>
                <path id="Path_13470" d="M960.992 744.56s-.036.321-.1.934c-.028.263-.064.582-.1.953-.263 2.457-.761 7.173-1.4 13.3-1.679 16.08-4.314 41.906-6.109 62.292-1.4 15.938-2.3 28.553-1.815 30.578 1.449 6.095 0 78.958 0 78.958-5.2 2.494-13.085 0-13.085 0s-13.852-65.66-11.913-74.786a31.43 31.43 0 0 0-1.3-16.916c-10.755-50.088-9.578-77.848-7.442-91.138a56.009 56.009 0 0 1 1.84-8.115 16.94 16.94 0 0 1 .737-1.994 50.619 50.619 0 0 1 40.687 5.934z" class="cls-15" transform="translate(-875.96 -593.654)"/>
                <path id="Path_13471" d="M984.11 758.927a60.349 60.349 0 0 1-21.46 4.638 71.919 71.919 0 0 1-17.659-1.676 81.309 81.309 0 0 1-24-9.337 56.024 56.024 0 0 1 1.84-8.115c7.223-5.142 25.081-.222 39.67 5.234q.781.295 1.554.59c11.173 4.272 20.055 8.666 20.055 8.666z" class="cls-16" transform="translate(-879.225 -597.468)"/>
                <path id="Path_13472" d="M923.61 499.352c-1.509 11.406-7.552 25.364-9.71 32.877 0 0 3.607 26.084.163 33.246a3.168 3.168 0 0 1-1.469 1.646c-12.758 5.557-62.444.161-64.541-15.867-.762-5.823 18.925-26.308 20.072-28.793.477-1.028.984-4.361-1.324-11.268-3.272 10.087-9.314 21.734-15.393 23.721-6.679 2.186-33.091-17.5-33.091-17.5s-.152-2.391 3.186-4.652c2.147-1.454 7.078-1.944 7.078-1.944l16.889 7.558c2.119-3.626 7.4-28.716 13.3-40.041 4.433-8.514 16.268-9.747 16.268-9.747s4.926 7.813 16.839 6.7 14.092-8.4 14.092-8.4 10.566 1.4 13.821 4.031c.561.463 5.801 13.49 3.82 28.433z" class="cls-12" transform="translate(-807.71 -405.662)"/>
                <path id="Path_13473" d="M1091.424 606.724s3.607 26.084.163 33.246c-9.3-4.666-21.41-14.736-17.723-30.472 5.355-22.862 27.27-35.651 27.27-35.651-1.509 11.406-7.552 25.364-9.71 32.877z" class="cls-10" transform="translate(-985.234 -480.157)"/>
                <path id="Path_13474" d="M1064.49 624.409s-13.232 1.918-14.288 2.9-4.707 6.727-4.257 8.724.4 4.054 1.213 3.912 3.452-5.215 4.451-5.448 1.822-.917 1.943-.471-2.031 2.58-1.925 3.187 1.8-.1 2.562-1.281 2.661-1.761 2.946-2.494 1.6-3.163 3.378-3.051 3.977-5.978 3.977-5.978z" class="cls-18" transform="translate(-966.234 -515.375)"/>
                <path id="Path_13475" d="M1109.9 622.692l-12.874.521-4.405 6 17.51.586z" class="cls-18" transform="translate(-998.774 -514.179)"/>
                <path id="Path_13476" d="M1107.14 466.9s15.345 1.821 19.57 8.4c5.342 8.32 24.215 35.911 23.809 44.261 0 0-11.758 4.684-43.367 2.173 0 0-.574-4.781 6.075-8.617 0 0 16.969-2.324 18.839-3.971l-12.6-13.389z" class="cls-12" transform="translate(-1008.884 -405.662)"/>
                <path id="Path_13477" d="M790.985 526.6l10.492-1a1.926 1.926 0 0 1 1.962 1.179l7.921 19.067a1.926 1.926 0 0 1-1.6 2.656l-10.917 1.043a1.926 1.926 0 0 1-1.976-1.214l-7.5-19.107a1.926 1.926 0 0 1 1.618-2.624z" class="cls-15" transform="translate(-787.458 -446.546)"/>
                <path id="Path_13478" d="M785.938 562.757s-2.771-4.779-2.563-5.956 3.075-6.638 4.548-7.18c2.631-.97 6.326-1.57 5.31 1.2-.671 1.829-3.325 4.479-2.863 5.31s.285 3.754.285 3.754z" class="cls-18" transform="translate(-783.364 -462.717)"/>
            </g>
            <g id="Group_20591" transform="translate(308.509 71.482)">
                <path id="Path_13479" d="M1932.209 1025.961c-3.759 24.092-28.345 39.435-53.562 39.435H1828.7l3.906-140.425s47.655-15.3 59.624-.745c10.486 12.747 38.923 63.206 40.418 93.071a42.215 42.215 0 0 1-.439 8.664z" class="cls-20" transform="translate(-1624.59 -791.315)"/>
                <path id="Path_13480" d="M1732.883 945.243s67.377-34.391 80.139-11.926c6.777 11.928 25.424 59.516 26.8 89.381 1.338 29.018-23.8 48.1-49.664 48.1h-45.931z" class="cls-21" transform="translate(-1557.85 -796.717)"/>
                <path id="Path_13481" d="M1440.632 760.671c-.568 2.923-6.023 5.635-14.118 8.034q-2.14.635-4.513 1.241c-27.552 7.037-76.354 10.966-81.006 8.89-6.428-2.868-45.879-143.037-45.879-143.037s37.659-1.415 67.567-2.105c10.232-.233 19.554-.382 26.153-.363a16.261 16.261 0 0 1 2.269.158 10.772 10.772 0 0 1 6.655 3.4c4.815 5.175 6.009 15.4 10.467 26.694 4.408 11.171 9.818 25.112 14.949 38.948 1.322 3.565 2.626 7.123 3.89 10.627q.536 1.483 1.061 2.951c7.583 21.223 13.423 39.827 12.505 44.562z" class="cls-5" transform="translate(-1252.931 -593.07)"/>
                <path id="Path_13482" d="M1990.616 1272.385c-3.759 24.092-28.345 39.435-53.562 39.435h-24.5c16.339-11.074 31.111-45.201 78.062-39.435z" class="cls-22" transform="translate(-1682.997 -1037.739)"/>
                <path id="Path_13483" fill="#e0b594" d="M1575.1 716.479c-1.252-.205-2.867-.471-4.7-.781a4.276 4.276 0 0 1-.865-1.177c-.737-1.621-.233-6.278.613-11.62-5.131-13.836-10.542-27.777-14.949-38.948-4.458-11.3-5.652-21.518-10.467-26.694a10.771 10.771 0 0 0-6.655-3.4c-3.976.055-8.173.125-12.5.2-1.538 3.05-4.189 5.928-8.769 8.339-20.432 10.755-5.275 32.919-5.275 32.919.147.1 8.109 15.925 8.109 15.925-.028-1.106 1.044-3.083 2.881-5.6 1.355 9.461 3.56 19.122 6.2 26.037-1.444 7.306-5.148 18.188-7.132 26.511-1.587 6.638-2.077 11.642.543 11.888a5.975 5.975 0 0 0 .972 0 13.528 13.528 0 0 0 1.6 7.278c5.12 9.9 29.752 11.681 48.791 11.716 8.1-2.4 13.551-5.112 14.118-8.034.906-4.738-4.934-23.338-12.515-44.559z" transform="translate(-1399.902 -593.436)"/>
                <path id="Path_13484" d="M1705.878 1086.173c-9.642 13.4-24.43 21.981-40.9 21.715l-70.819.036-33.93.017 38.171-125.728s96.623-9.613 108.536 3.206c5.533 5.951 8.638 32.9 10.378 60.069a62.759 62.759 0 0 1-11.436 40.685z" class="cls-24" transform="translate(-1437.588 -833.668)"/>
                <path id="Path_13485" d="M1783.755 1323.114c-9.642 13.4-24.43 21.981-40.9 21.715l-70.819.036c8.333-7 34.542-26.846 62.6-25.907 21.272.712 38.164.408 49.119 4.156z" class="cls-21" transform="translate(-1515.465 -1070.609)"/>
                <g id="Group_20590" transform="translate(115.788)">
                    <path id="Path_13486" d="M1727.861 700.181s5.884 8.707 9.24 27.011c2.939 16.031 5.516 21.95 9.761 25.237s27.894 12.994 27.894 12.994l-1.768 4.143s-34.663-4.721-38.556-10.514-18.738-40.021-17.585-47.9 11.014-10.971 11.014-10.971z" class="cls-25" transform="translate(-1662.423 -639.634)"/>
                    <g id="Group_20587" transform="translate(148.453 227.811)">
                        <path id="Path_13487" d="M2028.708 1275.308c-.312 3.381 4.4 4.2 9.845 4.474s3.8 1.388 11.274 2.741 10.464-.691 11-1.7c.482-.9-2.991-2.3-6.693-3.879-.466-.2-.932-.4-1.4-.605-4.166-1.832-6.5-5.568-9.75-9.032-3.077-3.281-6-13.786-6-13.786l-10.151-2.168s2.85 9.454 3.839 13.491c.582 2.374-.277 5.028-1.039 7.048a13.288 13.288 0 0 0-.925 3.416z" class="cls-18" transform="translate(-2026.842 -1251.354)"/>
                        <path id="Path_13488" d="M2042.8 1326.924c5.451.272 3.8 1.388 11.274 2.741s10.464-.691 11-1.7c.482-.9-2.991-2.3-6.693-3.879l-.057.063a21.272 21.272 0 0 1-11.315.135c-4.942-1.342-9.72-4.295-13.124-5.249a13.279 13.279 0 0 0-.934 3.415c-.303 3.381 4.403 4.203 9.849 4.474z" class="cls-26" transform="translate(-2031.093 -1298.496)"/>
                    </g>
                    <path id="Path_13489" d="M1669.5 916.163s67.456-5.077 80.155 2.938 33.067 101.371 33.067 101.371a8.285 8.285 0 0 1-4.065 1.311c-2.611.283-8.362-1.252-8.362-1.252s-29.271-41.771-31.333-52.294-1.558-19.913-6.253-20.164-63.219 7.115-72.072-8.481-1.534-31.033-1.534-31.033z" class="cls-15" transform="translate(-1620.271 -784.775)"/>
                    <g id="Group_20588" transform="translate(122.641 238.645)">
                        <path id="Path_13490" d="M1943.652 1311.011c-.312 3.381 4.394 4.2 9.846 4.474s3.8 1.388 11.274 2.741 10.463-.692 11-1.7c.481-.9-2.991-2.3-6.693-3.879-.466-.2-.932-.4-1.4-.605-4.166-1.831-6.5-5.567-9.751-9.031-3.076-3.281-6-13.786-6-13.786l-10.151-2.168s2.85 9.454 3.84 13.491c.582 2.374-.277 5.028-1.039 7.048a13.27 13.27 0 0 0-.926 3.415z" class="cls-18" transform="translate(-1941.785 -1287.057)"/>
                        <path id="Path_13491" d="M1957.75 1362.627c5.451.272 3.8 1.388 11.274 2.741s10.464-.692 11-1.7c.481-.9-2.992-2.3-6.693-3.879l-.058.063a21.27 21.27 0 0 1-11.315.135c-4.942-1.342-9.72-4.295-13.124-5.249a13.25 13.25 0 0 0-.934 3.416c-.308 3.379 4.4 4.201 9.85 4.473z" class="cls-26" transform="translate(-1946.037 -1334.198)"/>
                    </g>
                    <path id="Path_13492" d="M1612.568 947.392s59.924 2.836 72.3 11.339 29.1 102.581 29.1 102.581a8.287 8.287 0 0 1-4.113 1.152c-2.62.181-8.306-1.577-8.306-1.577s-27.623-42.878-29.274-53.473-.782-19.958-5.464-20.393-63.448 4.649-71.687-11.279 17.444-28.35 17.444-28.35z" class="cls-17" transform="translate(-1576.548 -811.824)"/>
                    <path id="Path_13493" d="M1595.028 504.367a15.539 15.539 0 0 0-8.286-2.165 3.932 3.932 0 0 1 1.826-.722c-1.423-.31-4.724.9-4.724.9-19.469-9.032-24.572 20.182-24.608 27.046s-.513 14.735-10.9 20.2c-20.432 10.754-5.275 32.917-5.275 32.917.148.1 8.111 15.927 8.111 15.927-.136-5.558 27.3-33.01 41.175-40.854 3.555-4.55 5.267-12.892 5.4-13.549-1 6.638-2.4 10.306-3.556 12.347 11.951-9.614 7.886-47.396.837-52.047z" class="cls-27" transform="translate(-1537.656 -500.665)"/>
                    <path id="Path_13494" d="M1647.844 667.131s5.291.229 10.87.759c3.792.36 7.838.778 9.975 1.671 5.281 2.208 4.727 11.558-6.355 9.827s-15.268-9.488-14.49-12.257z" class="cls-18" transform="translate(-1614.342 -616.614)"/>
                    <path id="Path_13495" d="M1669.612 641.909c.065.034 1.581 8.043-5.676 7.723-4.763-.21-15.037-5.974-14.13-10.052.431-1.939 4.031-6.969 4.755-18.45l.867.232 14.58 3.911s-.646 4.627-.948 9.007c-.254 3.677-.26 7.18.552 7.629z" class="cls-18" transform="translate(-1615.733 -584.573)"/>
                    <path id="Path_13496" d="M1683.043 625.8s-.647 4.627-.948 9.007c-8.252-.784-12.12-8.618-13.632-12.917z" class="cls-25" transform="translate(-1628.767 -585.105)"/>
                    <path id="Path_13497" d="M1653.3 547.812s-3.876-7.135-4.526-13.058c-.464-4.229 2.7-19.579 18.116-16.31a21.2 21.2 0 0 1 8.55 3.9c3.228 2.508 7.778 7.762 1.422 20.916l-1.721 4.472z" class="cls-27" transform="translate(-1615.025 -512.733)"/>
                    <path id="Path_13498" d="M1681.526 571.988s-19.583-.981-18.784-13.167-1.191-20.52 11.346-20.408 14.659 4.92 15.382 9.053-2.829 24.463-7.944 24.522z" class="cls-18" transform="translate(-1624.766 -526.956)"/>
                    <path id="Path_13499" d="M1668.9 532.914s-6.309 13.938-14.669 15.5-11.779-.874-11.779-.874a23.329 23.329 0 0 0 8.53-13.244s14.335-8.456 17.918-1.382z" class="cls-27" transform="translate(-1610.652 -521.163)"/>
                    <path id="Path_13500" d="M1724.98 538.084s3.787 3.458 4.556 6.626.781 9.585 2.657 9.492c0 0 4.683-9.448.514-15.246-4.42-6.149-7.727-.872-7.727-.872z" class="cls-27" transform="translate(-1668.133 -525.261)"/>
                    <path id="Path_13501" d="M1646.508 749.023c-1.585 1.895-6.533 2.476-11.822 3.346-4.161.687-8.533 1.549-11.641 3.375-7.059 4.144-30.123 18.152-36.883 17.515-2.621-.247-2.13-5.25-.543-11.888 2.5-10.484 7.73-25.042 7.73-31.373 0-3.455 1.15-11.631 2.685-20.978q.187-1.13.38-2.28c3.036-18.174 7.242-39.6 7.242-39.6s4.69 10.234 13.83 10.234 7.015-7.8 7.015-7.8 8.339.981 10.309 3.1 6.967 11.3 7.959 13.8c0 0 .2 3.183-7.68 4.7a103.4 103.4 0 0 1 2.147 14.4c.169 4.255-2.9 17.573-3.787 25.857-.313 2.934-.355 5.236.122 6.281.61 1.338 2.582 2.671 4.826 3.978 4.453 2.584 9.991 5.08 8.111 7.333z" class="cls-17" transform="translate(-1570.153 -616.617)"/>
                    <path id="Path_13502" d="M1638.4 819.882c5.059 8.625-13.719 11.218-16.828 13.044-7.059 4.144-28.647 19.171-35.407 18.534-2.621-.247-2.13-5.25-.543-11.888 2.5-10.484 7.73-25.042 7.73-31.373 0-3.455 1.15-11.631 2.685-20.978l8.137-7.813s8.719 22.535 17.03 26.228a69.9 69.9 0 0 0 12.249 3.987c-.313 2.934-.355 5.236.122 6.281.604 1.338 2.576 2.67 4.825 3.978z" class="cls-8" transform="translate(-1570.153 -694.818)"/>
                    <path id="Path_13503" d="M1603.792 686.808s-6.957-4.225-13.684 3.79 4.781 65.307 14.748 68.25c11.071 3.269 43.054-.523 43.054-.523l-.616-5s-34.047-6.528-35.462-8.347-4.503-57.246-8.04-58.17z" class="cls-18" transform="translate(-1572.791 -629.544)"/>
                    <path id="Path_13504" d="M1593.425 667.131s-14.288 1.289-18.437 5.988-5.363 17.434-5.363 17.434 12.583 10.157 27.742 6.216z" class="cls-17" transform="translate(-1559.923 -616.614)"/>
                    <g id="Group_20589" transform="translate(78.458 105.693)">
                        <path id="Rectangle_17409" d="M0 0H18.872V2.23H0z" class="cls-28" transform="translate(0 25.765)"/>
                        <path id="Path_13505" d="M1845.173 876.639c.184-.738 17.349-27.69 17.349-27.69h38.19l-19.155 26.966z" class="cls-28" transform="translate(-1830.309 -848.949)"/>
                        <path id="Path_13506" d="M1850.468 876.944c.185-.738 17.4-27.995 17.4-27.995h36.532l-18.224 27.995z" class="cls-27" transform="translate(-1833.997 -848.949)"/>
                        <path id="Path_13507" d="M1947.238 890.834a3.05 3.05 0 0 1-2.658 1.977 1.362 1.362 0 0 1-1.3-1.977 3.049 3.049 0 0 1 2.658-1.978 1.362 1.362 0 0 1 1.3 1.978z" class="cls-28" transform="translate(-1898.567 -876.745)"/>
                    </g>
                    <path id="Path_13508" d="M1774 903.688s11.085-2.146 12.337-1.609 8.225 6.794 7.51 8.046-3.576 2.146-6.795 1.073-10.192-1.609-11.443-3.218a10.5 10.5 0 0 1-1.609-4.292z" class="cls-18" transform="translate(-1702.28 -780.202)"/>
                </g>
                <path id="Path_13509" d="M1628.774 1027.222c-4.051 23.367-26.275 38.175-49.057 38.175h-45.932l3.593-140.425s43.824-15.3 54.831-.745c9.644 12.747 35.795 63.206 37.171 93.071a45.476 45.476 0 0 1-.606 9.924z" class="cls-20" transform="translate(-1419.172 -791.315)"/>
                <path id="Path_13510" d="M1649.835 1276.491c-4.051 23.367-26.275 38.175-49.057 38.175h-36.756c17.205-11.666 40.37-43.882 85.813-38.175z" class="cls-22" transform="translate(-1440.233 -1040.584)"/>
                <path id="Path_13511" d="M1294.506 866q-.516.038-1.031.067-1.089.058-2.186.075c-.241 0-.485.006-.729.006h-45.932v-.022l-2.651.033c-4.729.058-9.67.113-14.252.152q-1.152.012-2.269.019l-.825.005c-4.527.03-8.531.044-11.386.025a75.845 75.845 0 0 1-11.359-.875 50.734 50.734 0 0 1-12.658-3.621 41.253 41.253 0 0 1-4.025-2.044 39.622 39.622 0 0 1-4.981-3.4 44.919 44.919 0 0 1-10.6-12.442 68.074 68.074 0 0 1-5.5-12 116 116 0 0 1-4.832-19.252 250.112 250.112 0 0 1-3.078-36.252q-.183-8.4-.028-17.72.245-14.9 1.33-32.273c1.009-16.282 2.552-34.243 4.591-54.013 1.859-18.058 4-30.68 7.123-33.556 4.6-4.242 14.2-5.948 20.875-6.632h.006c4.145-.424 7.156-.457 7.156-.457 8.156 0 15.407 5.857 18.025 14.559 5.33 17.719 14.847 49.4 24.751 82.538l.149.5 1.709 5.723c.086.291.175.582.263.873.557-.249 1.136-.51 1.734-.773a.433.433 0 0 1 .061-.028c2.375-1.052 5.062-2.205 7.962-3.38q2.256-.914 4.668-1.842c4.532-1.737 9.425-3.455 14.384-4.934 2.2-.659 4.416-1.272 6.619-1.815 2.828-.7 5.635-1.294 8.369-1.734l.238-.039c.324-.052.646-.1.967-.147 11.794-1.731 22.028-.529 26.261 6.94 6.777 11.963 25.422 59.69 26.8 89.642 1.275 27.623-21.311 46.266-45.719 48.094z" class="cls-24" transform="translate(-1156.107 -592.024)"/>
                <path id="Path_13512" d="M1298.85 741.635s-23.575-96.044-25.276-104.116a6.094 6.094 0 0 0-5.448-5.232c4.144-.424 7.158-.456 7.158-.456 8.157 0 15.406 5.838 18.024 14.515 5.709 18.926 16.223 53.826 26.872 89.373-.538-.019-21.33 5.916-21.33 5.916z" class="cls-20" transform="translate(-1234.132 -592.026)"/>
                <path id="Path_13513" d="M1504.773 993.241c-6.309-10.428-1.011-12.384-1.978-35.745s-11.844-21.429-16.357-25.945a12.177 12.177 0 0 1-2.188-4.8c-.321.047-.643.094-.967.147-.066.011-.144.022-.238.039-2.735.44-5.541 1.033-8.369 1.734-2.2.543-4.419 1.155-6.619 1.815-4.959 1.479-9.852 3.2-14.384 4.934q-2.41.923-4.669 1.842c-3.9 24.505-9.943 134.322-9.943 134.322.05.052.1.1.146.152 4.931-.044 10.262-.1 15.332-.163.723-.012 1.44-.02 2.152-.028v.022h34.662c.047-.025.094-.055.141-.083l.094-.058c9.309-5.774 7.231-17.357 5.039-24.619-.884-7.765-4.313-16.861-7.117-25.317.87-2.573 2.091-4.045 7.336-5.981 5.826-2.147 7.355-11.317 7.355-11.317 1.557 4.1-2 9.76-2.1 9.909.209-.237 8.911-10.554 2.672-20.86z" class="cls-21" transform="translate(-1353.193 -797.448)"/>
            </g>
            <g id="girl_2" transform="translate(287.922 163.252)">
                <path id="Path_13514" d="M1201.272 989.856s-34.968 15.234-41.315 14.958S1114.5 992.9 1114.5 992.9l1 6.729s30.184 17.36 40.737 18.344c10.389.97 45.913-9.324 49.343-11.5s5.659-14.418-4.308-16.617z" class="cls-19" transform="translate(-1106.538 -933.173)"/>
                <path id="Path_13515" d="M1374.573 803.71s12.9-2.45 19.325 2.242c11.637 8.5 12.262 37.8 16.625 42.164s14.876 2.5 15.812 25.087-4.186 24.473 1.914 34.554-2.581 20.172-2.581 20.172 3.555-5.565 2.032-9.582c0 0-1.48 8.866-7.113 10.943s-6.465 3.6-7.365 6.649c0 0-48.048-24.62-48.1-42.084s-9.456-34.761-4.838-42.329a16.74 16.74 0 0 0-2.309 6.839 9 9 0 0 1 2.031-10.25c4.8-4.942-5.633-15.168-4.088-27.013 1.062-8.13 6.768-17.037 18.655-17.392z" class="cls-16" transform="translate(-1274.585 -803.071)"/>
                <path id="Path_13516" d="M1386.435 960.5a33.642 33.642 0 0 0 11.756 5c18.121 4.187 25.065-11.128 27.673-21.641a15.563 15.563 0 0 0-6.139-1.886c-1.31-.155-2.687-.257-3.828-.314-2.034-1.558-5.067-7.937-5.737-17.84l-.852.229-14.281 3.909s.654 4.54.975 8.83c.248 3.358.287 6.567-.349 7.352-1.114.242-1.783.4-1.783.4a.039.039 0 0 1-.007.014 91.914 91.914 0 0 0-7.428 15.947z" class="cls-18" transform="translate(-1295.95 -887.176)"/>
                <path id="Path_13517" d="M1414.741 928.491s.656 4.536.975 8.83c8.091-.81 11.845-8.513 13.307-12.738z" class="cls-19" transform="translate(-1315.666 -887.708)"/>
                <path id="Path_13518" d="M1388.423 875.82s19.2-1.06 18.361-13.009 1.066-20.134-11.231-19.963-14.354 4.9-15.042 8.956 2.895 23.984 7.912 24.016z" class="cls-18" transform="translate(-1291.764 -830.776)"/>
                <path id="Path_13519" d="M1374.427 839.47c2.707-3.807 5-3.179 6.337-2.188a13.442 13.442 0 0 1 17.436 1.518 22.88 22.88 0 0 0 8.433 12.949s-3.341 2.41-11.55.916a13.73 13.73 0 0 1-6.851-4.037 44.867 44.867 0 0 0 8.376 8.855c-9.947-3.76-14.773-16.873-15.26-18.261-1.1 1.135-3.24 3.585-3.783 5.875-.738 3.112-3.922 7.975-5.762 7.893-.003.002-1.437-7.812 2.624-13.52z" class="cls-16" transform="translate(-1285.587 -825.125)"/>
                <path id="Path_13520" d="M1404.43 1035.875c1.734-8.866 7.389-44.286 1.734-55.684-2.031-4.095-10-4.464-18.743-4.1-2.721 1.756-13.087 8.393-17.345 7.565-.046-.009-.129-.029-.239-.056-2.005-.5-2.762-1.91-1.089-3.124a38.183 38.183 0 0 0-9.708.595c-3.037.572-11.23 4.811-11.23 4.811s4.126 7.453 10.209 10.026c-1.034 9.253.5 13.336 10.1 34.709 8.112 18.066-1.094 34.332-1.094 34.332s47.752 38.394 48.018 18.845c.203-14.724-12.829-36.588-10.613-47.919z" class="cls-27" transform="translate(-1269.047 -923.508)"/>
                <path id="Path_13521" fill="#dd6d22" d="M1300.8 1165.624a8.877 8.877 0 0 1-6.387-3.888q-.346-.517-.739-1.112c-5.436-8.229-7.55-33.428-19.777-60.274-2.978-6.536-13.668-7.711-16.582-15.1 0 0-7.175-23.947 13.732-24.654s55.99 66.632 56.543 73.694c.542 6.843 13.827 35.917-26.79 31.334z" transform="translate(-1205.19 -982.442)"/>
                <path id="Path_13522" d="M1129.527 1369.452h29.756s1.112-4.746-.841-7.976c-1.73-2.857-1.067-4.485.214-6.849a11.559 11.559 0 0 1-5.012.944 10.488 10.488 0 0 1-4.425-1.557c-1.281 1.46-6.764 7.675-8.478 8.906-1.941 1.398-10.615.901-11.214 6.532z" class="cls-28" transform="translate(-1117.006 -1186.821)"/>
                <path id="Path_13523" d="M1420.78 1020.449s3.872 35.235-21.244 42.618-32.246-32.42-11.967-35.283 33.211-7.335 33.211-7.335z" class="cls-28" transform="translate(-1288.534 -954.482)"/>
                <path id="Path_13524" d="M1207.672 1065.349c-1.792 13.432-8.789 55.83-21.132 76.515-3.979 6.669 10.026 10.407 10.1 10.387 1.878-.491 5.008-3.486 6.45-4.786 10.02-9.031 30.362-34.6 30.362-55.1 0-10 .175-29.088-7.094-33.941-4.474-2.991-17.975 1.591-18.686 6.925z" class="cls-10" transform="translate(-1156.222 -980.272)"/>
                <path id="Path_13525" d="M1359.337 1161.569s-1.1-1.535-3.026-4.449c-2.288-3.466-4.82-10.287-7.893-19.031-3.228-9.179-7.057-20.471-11.841-32.22-1.477-3.627-3.045-7.3-4.713-10.963-2.978-6.536-11.17-5.632-14.085-13.021 0 0-11.373-25.614 9.533-26.32s60.632 68.516 62.915 75.221c2.499 7.339 14.692 37.814-30.89 30.783z" class="cls-12" transform="translate(-1245.979 -978.937)"/>
                <path id="Path_13526" d="M1201.506 1369.452h29.756s1.112-4.746-.841-7.976c-1.729-2.857-1.066-4.485.214-6.849a11.558 11.558 0 0 1-5.012.944 10.485 10.485 0 0 1-4.425-1.557c-1.281 1.46-6.765 7.675-8.478 8.906-1.944 1.398-10.62.901-11.214 6.532z" class="cls-27" transform="translate(-1167.141 -1186.821)"/>
                <path id="Path_13527" d="M1398.65 1208.049c-3.228-9.179-7.056-20.471-11.841-32.22 1.25-8.9 3.945-16.69 8.478-19.829 0 0 10.996 34.066 3.363 52.049z" class="cls-10" transform="translate(-1296.211 -1048.897)"/>
                <path id="Path_13528" d="M1275.176 1065.619c-1.792 13.433-4.316 56.783-16.658 77.468-3.979 6.668 10.026 10.407 10.1 10.387 1.878-.492 5.007-3.486 6.449-4.786 10.021-9.031 30.363-34.6 30.363-55.1 0-10-11.732-28.286-19-33.139a7.312 7.312 0 0 0-11.254 5.17z" class="cls-12" transform="translate(-1206.356 -981.494)"/>
                <g id="Group_20592" transform="translate(0 39.17)">
                    <path id="Path_13529" d="M1098.75 935.392l30.473-3.236a1.967 1.967 0 0 1 2.046 1.256l10.9 28.649a1.967 1.967 0 0 1-1.759 2.665l-30.238 1.22a1.967 1.967 0 0 1-1.894-1.206l-11.138-26.632a1.967 1.967 0 0 1 1.61-2.716z" class="cls-28" transform="translate(-1094.343 -932.144)"/>
                    <path id="Path_13530" d="M1090.028 936.3l30.473-3.236a1.967 1.967 0 0 1 2.046 1.256l10.9 28.649a1.967 1.967 0 0 1-1.759 2.665l-30.238 1.22a1.965 1.965 0 0 1-1.894-1.206l-11.139-26.632a1.967 1.967 0 0 1 1.611-2.716z" class="cls-27" transform="translate(-1088.267 -932.78)"/>
                    <path id="Path_13531" d="M1149.455 983.589a1.253 1.253 0 0 1 1.177-1.852 2.93 2.93 0 0 1 2.526 1.852 1.253 1.253 0 0 1-1.178 1.852 2.928 2.928 0 0 1-2.525-1.852z" class="cls-28" transform="translate(-1130.803 -966.687)"/>
                    <path id="Path_13532" d="M1096.939 950.592a.615.615 0 0 1 .579-.91 1.438 1.438 0 0 1 1.241.91.616.616 0 0 1-.578.91 1.439 1.439 0 0 1-1.242-.91z" class="cls-28" transform="translate(-1094.266 -944.361)"/>
                </g>
                <path id="Path_13533" d="M1310.17 989.856s-42.234 15.553-48.579 15.234c-4.1-.206-38.195-12.19-38.195-12.19l-3.06 5.79s33.183 21.328 42.306 21.222c18.011-.208 48.4-11.264 51.83-13.437s5.664-14.42-4.302-16.619z" class="cls-18" transform="translate(-1180.257 -933.173)"/>
                <path id="Path_13534" d="M1180.15 988.746s-3.061-4.71-6.108-4.848-8.312 2.078-10.112 2.424-6.927 2.009-5.4 4.5 8.589 3.047 11.636 2.493 6.926 1.219 6.926 1.219z" class="cls-18" transform="translate(-1137.011 -929.018)"/>
                <path id="Path_13535" d="M1196.355 977.981s-4.846-2.223-6.232-2.639-1.108.007-.693 1.32 2.909 2.566 2.909 2.978 4.016-1.659 4.016-1.659z" class="cls-18" transform="translate(-1158.495 -922.956)"/>
                <path id="Path_13536" d="M1104.146 979.984s3.055-4.834 4.056-5.031c3.048-.6 3.048 3.412 2.4 6-.693 2.778-3.041 5.4-3.691 5.17s-3.484-3.585-2.765-6.139z" class="cls-18" transform="translate(-1099.247 -922.75)"/>
                <path id="Path_13537" d="M1103.86 994.866a8.09 8.09 0 0 0 4.172 8.252z" class="cls-18" transform="translate(-1099.077 -936.662)"/>
                <path id="Path_13538" fill="#fff" d="M1394.934 927.866s1.815-.718 6.924-.3c0 0-.272 1.993-4.039 2.19a3 3 0 0 1-2.885-1.89z" transform="translate(-1301.87 -889.693)"/>
                <path id="Path_13539" d="M1444.659 995.275s3.778 11.958 16.75 14.679c0 0 21.423-6.6 10.757-21.195 0 .001-10.547-7.835-27.507 6.516z" class="cls-27" transform="translate(-1336.505 -930.922)"/>
            </g>
            <path id="Rectangle_17410" fill="#003651" d="M1.123 0h844.754A1.123 1.123 0 0 1 847 1.123a1.123 1.123 0 0 1-1.123 1.123H1.123A1.123 1.123 0 0 1 0 1.123 1.123 1.123 0 0 1 1.123 0z" transform="translate(0 345.884)"/>
        </g>
    </g>
</svg>
